{
	"asset":{
		"generator":"Khronos glTF Blender I/O v3.6.27",
		"version":"2.0"
	},
	"extensionsUsed":[
		"KHR_materials_specular",
		"KHR_materials_ior"
	],
	"scene":0,
	"scenes":[
		{
			"name":"Scene",
			"nodes":[
				0
			]
		}
	],
	"nodes":[
		{
			"extras":{
				"sparkar_optimization":{
					"InvertedReducePercentage":0.0
				},
				"spark_blender_addon":1
			},
			"mesh":0,
			"name":"statue"
		}
	],
	"materials":[
		{
			"doubleSided":true,
			"extensions":{
				"KHR_materials_specular":{
					"specularColorFactor":[
						0,
						0,
						0
					]
				},
				"KHR_materials_ior":{
					"ior":1.4500000476837158
				}
			},
			"name":"stallSG",
			"pbrMetallicRoughness":{
				"baseColorFactor":[
					0.800000011920929,
					0.800000011920929,
					0.800000011920929,
					1
				],
				"metallicFactor":0
			}
		},
		{
			"doubleSided":true,
			"extensions":{
				"KHR_materials_specular":{
					"specularColorFactor":[
						0,
						0,
						0
					]
				},
				"KHR_materials_ior":{
					"ior":1.4500000476837158
				}
			},
			"name":"IndiaCatalinaSG",
			"pbrMetallicRoughness":{
				"baseColorFactor":[
					0.800000011920929,
					0.800000011920929,
					0.800000011920929,
					1
				],
				"metallicFactor":0
			}
		}
	],
	"meshes":[
		{
			"name":"statue",
			"primitives":[
				{
					"attributes":{
						"POSITION":0,
						"NORMAL":1,
						"TEXCOORD_0":2
					},
					"indices":3,
					"material":0
				},
				{
					"attributes":{
						"POSITION":4,
						"NORMAL":5,
						"TEXCOORD_0":6
					},
					"indices":7,
					"material":1
				}
			]
		}
	],
	"accessors":[
		{
			"bufferView":0,
			"componentType":5126,
			"count":8487,
			"max":[
				12.826565742492676,
				19.069751739501953,
				12.690956115722656
			],
			"min":[
				-12.827239990234375,
				-25.52766227722168,
				-12.962882041931152
			],
			"type":"VEC3"
		},
		{
			"bufferView":1,
			"componentType":5126,
			"count":8487,
			"type":"VEC3"
		},
		{
			"bufferView":2,
			"componentType":5126,
			"count":8487,
			"type":"VEC2"
		},
		{
			"bufferView":3,
			"componentType":5123,
			"count":43680,
			"type":"SCALAR"
		},
		{
			"bufferView":4,
			"componentType":5126,
			"count":14272,
			"max":[
				6.745185852050781,
				74.47232055664062,
				6.203117847442627
			],
			"min":[
				-6.7458600997924805,
				19.03598976135254,
				-2.774545431137085
			],
			"type":"VEC3"
		},
		{
			"bufferView":5,
			"componentType":5126,
			"count":14272,
			"type":"VEC3"
		},
		{
			"bufferView":6,
			"componentType":5126,
			"count":14272,
			"type":"VEC2"
		},
		{
			"bufferView":7,
			"componentType":5123,
			"count":76329,
			"type":"SCALAR"
		}
	],
	"bufferViews":[
		{
			"buffer":0,
			"byteLength":101844,
			"byteOffset":0,
			"target":34962
		},
		{
			"buffer":0,
			"byteLength":101844,
			"byteOffset":101844,
			"target":34962
		},
		{
			"buffer":0,
			"byteLength":67896,
			"byteOffset":203688,
			"target":34962
		},
		{
			"buffer":0,
			"byteLength":87360,
			"byteOffset":271584,
			"target":34963
		},
		{
			"buffer":0,
			"byteLength":171264,
			"byteOffset":358944,
			"target":34962
		},
		{
			"buffer":0,
			"byteLength":171264,
			"byteOffset":530208,
			"target":34962
		},
		{
			"buffer":0,
			"byteLength":114176,
			"byteOffset":701472,
			"target":34962
		},
		{
			"buffer":0,
			"byteLength":152658,
			"byteOffset":815648,
			"target":34963
		}
	],
	"buffers":[
		{
			"byteLength":968308,
			"uri":"data:application/octet-stream;base64,"
		}
	]
}
